<svg width="800" height="348" version="1.1" xmlns="http://www.w3.org/2000/svg">
<g transform="translate(0 -704.36)">
<rect x="2.4009e-8" y="704.36" width="800" height="348" fill="#f2f2f2"/>
<g transform="matrix(.45456 0 0 .44361 -604.68 947.82)">
<path transform="translate(0 52.362)" d="m1827.3-145c-2.2071-1.2743-3.2892-3.1981-3.2463-5.1092.041-1.8384-.024-10.017-.024-10.017l289.06-159.87c4.3301-2.5 12.99-2.5 17.32 0l202.46 109.74s-.059 8.3216-.024 10.165c.037 1.9062-1.0454 3.8232-3.2467 5.0941l-134.23 77.5s-4.3301-2.5-8.6603 0l-30.311 17.5c-4.3302 2.5-4.3302 7.5-4.3302 7.5l-108.25 62.5c-4.3302 2.5-12.99 2.5-17.321 0z" fill="#868686"/>
<path d="m1827.3-102.64c-4.3301-2.5-4.3301-7.5 0-10l285.79-165c4.3301-2.5 12.99-2.5 17.32 0l199.19 115c4.3302 2.5 4.3302 7.5 0 10l-134.23 77.5s-4.3301-2.5-8.6603 0l-34.641 20c-4.3301 2.5 0 5 0 5l-108.25 62.5c-4.3302 2.5-12.99 2.5-17.321 0z" fill="#bebebe"/>
<path d="m1814.3-335.14c0-5 4.3301-12.5 8.6602-15l290.12-167.5c4.3301-2.5 8.6602 0 8.6602 5v220c0 5-4.33 12.5-8.6602 15l-290.12 167.5c-4.3302 2.5-8.6603 0-8.6603-5z" fill="#a4a4a4"/>
<path d="m2130.4-52.638 86.602-50-64.952-37.5-86.602 50z" fill="#cacaca" stroke="#afafaf" stroke-width="1.6755"/>
<path d="m1862-97.638 17.32 10 17.32-10-17.32-10z"/>
<path d="m1849-105.14 8.6602 5 17.321-10-8.6602-5z"/>
<path transform="translate(0 52.362)" d="m1853.3-180 8.6602 5 233.83-135-8.6602-5z" fill="#171717"/>
<g>
<path transform="translate(0 52.362)" d="m1827.3-390v210l281.46-162.5v-210z"/>
<path d="m1870.6-117.64 8.6601 5 17.321-10-8.6601-5z"/>
<path d="m1892.3-130.14 8.6601 5 17.321-10-8.6601-5z"/>
<path d="m1913.9-142.64 8.6601 5 17.321-10-8.6601-5z"/>
<path d="m1935.6-155.14 8.66 5 17.321-10-8.66-5z"/>
<path d="m1957.2-167.64 8.6602 5 17.321-10-8.6602-5z"/>
<path d="m1978.9-180.14 8.6602 5 17.321-10-8.6602-5z"/>
<path d="m2000.5-192.64 8.6602 5 17.321-10-8.6602-5z"/>
<path d="m2022.2-205.14 8.6602 5 17.321-10-8.6602-5z"/>
<path d="m2043.8-217.64 8.6602 5 17.321-10-8.6602-5z"/>
<path d="m2065.5-230.14 8.6601 5 17.321-10-8.6601-5z"/>
<path d="m2087.1-242.64 8.6603 5 17.321-10-8.6603-5z"/>
<path d="m2108.8-255.14 8.6602 5 17.321-10-8.6602-5z"/>
<path d="m1905.3-72.638 17.32 10 34.641-20-17.32-10z"/>
<path d="m1926.9-60.138 17.32 10 43.301-25-17.32-10z"/>
<path d="m1883.6-110.14 17.32 10 17.32-10-17.32-10z"/>
<path d="m1905.3-122.64 17.32 10 17.32-10-17.32-10z"/>
<path d="m1926.9-135.14 17.32 10 17.32-10-17.32-10z"/>
<path d="m1948.6-147.64 17.32 10 17.32-10-17.32-10z"/>
<path d="m1970.2-160.14 17.32 10 17.32-10-17.32-10z"/>
<path d="m1991.9-172.64 17.32 10 17.32-10-17.32-10z"/>
<path d="m2013.5-185.14 17.32 10 17.32-10-17.32-10z"/>
<path d="m2035.2-197.64 17.32 10 17.32-10-17.32-10z"/>
<path d="m2056.8-210.14 17.32 10 17.32-10-17.32-10z"/>
<path d="m2078.5-222.64 17.32 10 17.32-10-17.32-10z"/>
<path d="m2100.1-235.14 17.32 10 38.971-22.5-17.32-10z"/>
<path d="m1883.6-85.138 17.32 10 25.981-15-17.32-10z"/>
<path d="m1913.9-102.64 17.32 10 17.32-10-17.32-10z"/>
<path d="m1935.6-115.14 17.32 10 17.32-10-17.32-10z"/>
<path d="m1957.2-127.64 17.32 10 17.32-10-17.32-10z"/>
<path d="m1978.9-140.14 17.32 10 17.32-10-17.32-10z"/>
<path d="m2000.5-152.64 17.32 10 17.32-10-17.32-10z"/>
<path d="m2022.2-165.14 17.32 10 17.32-10-17.32-10z"/>
<path d="m2043.8-177.64 17.32 10 17.32-10-17.32-10z"/>
<path d="m2065.5-190.14 17.32 10 17.32-10-17.32-10z"/>
<path d="m2087.1-202.64 17.32 10 17.32-10-17.32-10z"/>
<path d="m2108.8-215.14 17.32 10 17.32-10-17.32-10z"/>
<path d="m2130.4-227.64 17.32 10 12.99-7.5-17.32-10z"/>
<path d="m1944.2-95.138 17.32 10 17.32-10-17.32-10z"/>
<path d="m1965.9-107.64 17.32 10 17.32-10-17.32-10z"/>
<path d="m1987.5-120.14 17.32 10 17.32-10-17.32-10z"/>
<path d="m2009.2-132.64 17.32 10 17.32-10-17.32-10z"/>
<path d="m2030.8-145.14 17.32 10 17.32-10-17.32-10z"/>
<path d="m2052.5-157.64 17.32 10 17.32-10-17.32-10z"/>
<path d="m2074.1-170.14 17.32 10 17.32-10-17.32-10z"/>
<path d="m2095.8-182.64 17.32 10 17.32-10-17.32-10z"/>
<path d="m2117.4-195.14 17.32 10 17.32-10-17.32-10z"/>
<path d="m2139.1-207.64 17.32 10 17.32-10-17.32-10z"/>
<path d="m2160.7-220.14 17.32 10 21.651-12.5-17.32-10z"/>
<path d="m2147.7-237.64 17.32 10 12.99-7.5-17.32-10z"/>
<path d="m1974.5-87.638 17.32 10 17.32-10-17.32-10z"/>
<path d="m1996.2-100.14 17.32 10 17.32-10-17.32-10z"/>
<path d="m2017.8-112.64 17.32 10 17.32-10-17.32-10z"/>
<path d="m2039.5-125.14 17.32 10 17.32-10-17.32-10z"/>
<path d="m2061.1-137.64 17.32 10 17.32-10-17.32-10z"/>
<path d="m2082.8-150.14 17.32 10 17.32-10-17.32-10z"/>
<path d="m2104.4-162.64 17.32 10 17.32-10-17.32-10z"/>
<path d="m2126.1-175.14 17.32 10 17.32-10-17.32-10z"/>
<path d="m2147.7-187.64 17.32 10 17.32-10-17.32-10z"/>
<path d="m2169.4-200.14 17.32 10 34.641-20-17.32-10z"/>
<path d="m1948.6-47.638 17.32 10 12.99-7.5-17.32-10z"/>
<path d="m1965.9-57.638 17.32 10 17.32-10-17.32-10z"/>
<path d="m1987.5-70.138 17.32 10 17.32-10-17.32-10z"/>
<path d="m2009.2-82.638 17.32 10 30.311-17.5-17.32-10z"/>
<path d="m2043.8-102.64 17.32 10 86.602-50-17.32-10z"/>
<path d="m2169.4-175.14 17.32 10 25.981-15-17.32-10z"/>
<path d="m2199.7-192.64 17.32 10 25.981-15-17.32-10z"/>
<path d="m2134.8-155.14 17.32 10 30.311-17.5-17.32-10z"/>
<path d="m1829.9-93.138 9.5266 5.5-1e-4-6-9.5262-5.5z"/>
<path d="m1843.8-84.138 6.9285 4v-8l-6.9281-4z"/>
<path d="m1855.9-76.138 11.258 6.5v-9l-3.4641-2v-1l-4.3302-2.5v1l-3.4641-2z"/>
</g>
<path transform="matrix(3.3104 0 0 3.3921 972.6 -580.02)" d="m343.21 23.549-28.668 16.152-20.773 73.615 49.441-27.859z" fill="#262626"/>
</g>
<path d="m343.74 993.92 7.384-3.7923 12.991-7.3196c98.808-55.673 102.05-29.854 200.85-85.527l1.9683-1.109" fill="none" stroke="#009ce0" stroke-width="3.9124"/>
<g transform="matrix(-.45456 0 0 .44361 613.69 1046.1)">
<path d="m632.2-61.638-43.301-25c-4.3302-17.5-4.3301-13.5 7e-5-21-7e-5-4 43.301 17 43.301 25 0 0 6.0622 17.5 0 21z" fill="#4b4b4b"/>
<path d="m584.57-120.14 7e-5 21 4.3301 12.5v-21c7.7942-4.5 0-12-4.3302-12.5z" fill="#222"/>
<path d="m632.2-61.638 38.971-22.5v-21c-7.7942-3.5-39.837 18-38.971 22.5z" fill="#4b4b4b"/>
<path d="m601.02-114.64-11.258 6.5v-9l3.4641-2v-1l4.3301-2.5 7e-5 1 3.4641-2z"/>
<path d="m606.2-132.64-21.625 12.5 4.3125 12.5 43.312 25 38.969-22.5-43.312-25z" fill="#6d6d6d"/>
<path d="m648.65-76.138-11.258 6.5v-9l3.4641-2v-1l4.3301-2.5 7e-5 1 3.4641-2z"/>
<path d="m665.97-86.138-11.258 6.5v-9l3.4641-2v-1l4.3301-2.5 7e-5 1 3.4641-2z"/>
</g>
<g>
<path d="m596.08 904.59s35.429 15.526 35.429 19.962c3.9366-2.218 0 11.09 0 11.09l-35.429-19.962z" fill="#1a3569"/>
<path d="m631.5 935.64v-11.09c0-4.4361 43.302-24.399 43.302-24.399v11.09z" fill="#22468b"/>
<path d="m596.08 904.59 35.429 19.962 43.302-24.399-35.429-19.962z" fill="#2c5cb6"/>
</g>
<path d="m635.44 925.44.78733-.44361v-.88722l-.78733.44361z" fill="none"/>
<g fill="#1cf100">
<path d="m636.71 924.66 1-.56343v-1.1269l-1 .56344z"/>
<path d="m644.59 920.23 1-.56345v-1.1269l-1 .56345z"/>
<path d="m652.46 915.79 1-.56345v-1.1269l-1 .56345z"/>
</g>
<g>
<path d="m660.33 911.35 1-.56345v-1.1269l-1 .56344z" fill="#677965"/>
<path d="m668.21 906.92 1-.56343v-1.1269l-1 .56343z" fill="#677965"/>
<path d="m639.77 928.32-5.1175 2.8835v-3.9925l1.5746-.88722v-.44361l1.9683-1.109 5e-5.44361 1.5746-.88722z"/>
<path d="m638.99 925.22.39366-.22181 3.1493 1.7744v3.1053l-4.3302 2.4399-3.1493-1.7744v-.44362l1.5891.60148 1.5602 1.173 3.9366-2.218v-2.6617l-1.9813-.83348z" fill="#dcdcdc"/>
</g>
<path d="m638.99 928.77s1.5746.88722 2.7556 1.5526c1.181.66542 5.5084 5.3233 9.445 11.977" fill="none" stroke="#009ce0" stroke-width="3.9124"/>
<path d="m642.14 926.99-2.2158 1.0296-1.7208 1.1884v2.6617l1.16-.65356c-.32037-.38776-.36414-.81258-.36447-1.1209-.00092-.78965.5816-1.4307 1.3353-1.8219.32119-.16674 1.1852-.35607 1.8058.0308z" fill="#fff"/>
<g>
<path d="m647.64 923.89-5.1175 2.8835v-3.9925l1.5746-.88722v-.44362l1.9683-1.109 4e-5.4436 1.5746-.88722z"/>
<path d="m655.52 919.45-5.1175 2.8835v-3.9925l1.5746-.88722v-.44362l1.9683-1.109 4e-5.4436 1.5746-.88722z"/>
<path d="m663.39 915.01-5.1175 2.8835v-3.9925l1.5746-.88722v-.44362l1.9683-1.109 4e-5.4436 1.5746-.88721z"/>
<path d="m671.26 910.58-5.1175 2.8835v-3.9925l1.5746-.88722v-.4436l1.9683-1.109 5e-5.44361 1.5746-.88722z"/>
</g>
<path d="m638.99 925.22-3.9335 2.218 3.1393 1.7744 3.9435-2.218z" fill="#fafafa"/>
<path d="m654.73 916.35.39366-.22182 3.1493 1.7744v3.1053l-4.3302 2.4398-3.1493-1.7744v-.44361l1.5891.60148 1.5602 1.173 3.9366-2.218v-2.6617l-1.9814-.83349z" fill="#dcdcdc"/>
<path d="m654.73 919.81s1.5746.88721 2.7556 1.5526c1.181.66542 3.1493 2.3068 5.1176 3.4158 3.9366 2.218 11.416.22181 16.14-2.4398 19.683-11.09-2.4416-31.694-19.683-42.143-3.9366-2.218-9.8414-5.5451-13.778-7.7632-7.8732-4.4361-15.374-5.8882-18.523-5.8882-5.5112 0-14.368 5.9194-14.368 5.9194" fill="none" stroke="#009ce0" stroke-width="3.9124"/>
<g>
<path d="m635.07 927.44-.008 2.6617 3.1393 1.7744.008-2.6617z" fill="#b4b4b4"/>
<path d="m646.86 920.78.39366-.22182 3.1493 1.7744v3.1053l-4.3302 2.4399-3.1493-1.7744v-.44361l1.5891.60148 1.5602 1.173 3.9366-2.218v-2.6617l-1.9813-.83348z" fill="#dcdcdc"/>
<path d="m657.88 918.12-2.2158 1.0296-1.7208 1.1884v2.6617l1.1599-.65356c-.32036-.38777-.36414-.81259-.36447-1.1209-.00092-.78965.58161-1.4307 1.3353-1.8219.32119-.16674 1.1852-.35607 1.8058.0308z" fill="#fff"/>
</g>
<path d="m646.85 924.33s1.5746.88722 2.7556 1.5526c1.181.66541 3.1493 2.3068 5.1176 3.4158 3.9366 2.2181 14.175 5.2346 22.442 1.0203 21.258-11.534 25.194-30.165-21.257-57.226-3.9366-2.2181-8.6605-4.8797-12.597-7.0978-7.8732-4.4361-17.321-5.3233-20.077-5.1015-3.5957.28943-6.4351 1.371-9.3587 2.806-1.9898.97667-5.4073 3.8706-5.4073 3.8706" fill="none" stroke="#009ce0" stroke-width="3.9124"/>
<path d="m637.81 925.44v.44361l-.39774.22181h-.78127v.4436h.78127l1.179-.66541v-.44361z" fill="#dcdcdc"/>
<g transform="matrix(-.45456 0 0 .44361 942.49 940.81)">
<path d="m710.14-136.64 38.971-22.5v-21l-38.971 22.5z" fill="#4b4b4b"/>
<path d="m743.92-162.14-11.258 6.5v-9l3.4641-2v-1l4.3301-2.5 7e-5 1 3.4641-2z"/>
<path d="m726.6-152.14-11.258 6.5v-9l3.4641-2v-1l4.3301-2.5 7e-5 1 3.4641-2z"/>
<path d="m753.44-111.64-43.301-25 7e-5-21c8.6602-5 51.961 20 43.301 25 0 0 6.0622 17.5 0 21z" fill="#434343"/>
<path d="m775.09-130.14c4.3301-7.5-21.651-12.5-21.651-2.5v21l21.651 2.5c6.0622-4.5 4.3301-22.5 0-21z" fill="#545454"/>
<path d="m796.74-142.64c-8.6602-10-34.641 5-21.651 12.5v21l21.651-12.5z" fill="#5e5e5e"/>
<path d="m775.09-130.14 21.651-12.5-3.4641-13-43.301-25-39.837 23 43.301 25z" fill="#6d6d6d"/>
<path d="m791.55-124.64-11.258 6.5v-9l3.4641-2v-1l4.3301-2.5 7e-5 1 3.4641-2z"/>
</g>
<g>
<path d="m650.01 922.56-2.2158 1.0296-1.7208 1.1884v2.6616l1.1599-.65356c-.32036-.38776-.36413-.81258-.36446-1.1209-.00092-.78966.5816-1.4307 1.3353-1.8219.32119-.16675 1.1852-.35607 1.8058.0308z" fill="#fff"/>
<path d="m654.73 916.35-3.9335 2.218 3.1393 1.7744 3.9435-2.218z" fill="#fafafa"/>
<path d="m789.76 938.75v94.946c0 1.5141-.0944 2.3399-.51456 2.6059l-1.1062.6034-61.901-135.67 1.045-.59139c.43633-.28647 1.2283.0431 2.6412.83925l56.687 31.94c2.7556 1.5526 3.1493 2.218 3.1493 5.3233z" fill="#343434" stroke="#343434" stroke-width=".75238px"/>
<path d="m788.57 939.41v94.946c0 3.0914-.39365 3.3132-3.1493 1.7606l-56.687-31.94c-2.7556-1.5526-3.1493-2.2181-3.1493-5.3233v-94.933c0-3.1053.39369-3.3271 3.1493-1.7744l56.687 31.94c2.7556 1.5526 3.1493 2.218 3.1493 5.3233z" fill="#141414" stroke="#141414" stroke-width=".75238px"/>
<path d="m767.71 1046.1 19.289-10.868v-98.481l-19.289 10.868z" fill="#1e1e1e"/>
<path d="m767.71 947.62-59.836-33.714 19.289-10.868 59.836 33.714z" fill="#2e2e2e"/>
</g>
<g fill="none">
<path d="m767.71 1046.1 19.289-10.868" stroke="#000" stroke-linecap="square" stroke-width=".75238px"/>
<path d="m707.87 913.91 19.289-10.868" stroke="#000" stroke-linecap="square" stroke-miterlimit="8" stroke-width=".75238"/>
<path d="m710.24 988.88s-7.8732-4.4361-9.8415-5.5451c-5.9048-3.3271-1.9683 7.7632-5.9048 9.9812-1.181.66542-5.2488 2.9574-7.8731 0-7.8732-8.8722-26.677-37.781-35.429-51.015" stroke="#009ce0" stroke-width="3.9124"/>
</g>
<g>
<path d="m769.43 950.31v94.946c0 1.5141-.0944 2.3399-.51456 2.6059l-1.3737.3047-61.755-135.17 1.1658-.78546c.43632-.28647 1.2282.0431 2.6412.83925l56.687 31.94c2.7556 1.5526 3.1493 2.218 3.1493 5.3233z" fill="#343434" stroke="#343434" stroke-width=".75238px"/>
<path d="m706.06 912.74c-.78806-.0412-.93752.77632-.93752 2.7171v94.932c0 3.1053.38369 3.7707 3.1393 5.3234l56.692 31.94c2.7556 1.5526 3.1535 1.3308 3.1535-1.7606v-94.946c0-3.1053-.39787-3.7707-3.1535-5.3233l-56.692-31.94c-1.0333-.58224-1.7289-.91798-2.2017-.94267z" fill="#171717"/>
<path d="m762.2 965.36 5.5112 3.1053v2.6617l-5.5112-3.1053z" fill="#1cf100"/>
<g transform="matrix(1.0123 .57035 0 .98789 0 0)" fill="#848484" stroke-width=".44905" aria-label="POWER">
<path d="m738.62 543.51c-.41284 1.7194-2.7855 1.1835-1.4044-.48782.39954-.73258 1.2736-.0981 1.4044.48782zm-1.3278.55254c1.5922.34692-.39142-2.0151.001-.0688z"/>
<path d="m741.38 544.04c-.0236 2.9397-4.5351-.38011-1.4917-1.2567.74388-.22195 1.7106.42093 1.4917 1.2567zm-2.0435 0c.88244 2.9724 3.1833-2.5391.13841-.66376l-.14511.31479z"/>
<path d="m744.19 545.33c-.53869-.76905-1.1724-2.2628-1.4669-.47031-1.179.32019-.77389-2.9596-.28804-.49811.46447-.79215 1.1658-2.0358 1.3495-.18154.6123.17057 1.1343-1.8985.70643.0587-.11117.36044-.24134.71714-.30102 1.0913z"/>
<path d="m746.71 545.33c-2.5902.92683-1.0629-3.8566-.67057-2.3486-.58031.50258.34034 1.278-.47911 1.6518.23357.38534.68783.70253 1.1497.69683z"/>
<path d="m747.58 544.26c-1.0509 1.1055.47003-3.6777 1.155-.83273.19795 1.7571-.0798 1.5168-1.155.83273zm0-.25609c1.6185.24046-.42169-1.9134 0 0z"/>
</g>
<path d="m762.2 973.35 5.5112 3.1053v2.6617l-5.5112-3.1053z" fill="#1cf100"/>
<g transform="matrix(1.0123 .57035 0 .98789 0 0)" fill="#848484" stroke-width=".44905" aria-label="ACTIVITY">
<path d="m735.74 553.71c-.34206-1.0412-3.0473-.42419-1.0834-2.0075.91675-.2305 1.5349 1.347 1.0834 2.0075zm-.41221-1.084c.27167-2.1262-1.8978.42977 0 0z"/>
<path d="m737.5 551.38c-1.9133-.2038.77303 3.857-1.2693 1.5477-.74171-.6189 1.4476-2.5532 1.2693-1.5477z"/>
<path d="m739.46 553.71c-.94596-.92155-.26358-4.0575.17925-1.7111-.20501.52619-.47871 1.1627-.17925 1.7111z"/>
<path d="m740.65 553.71c.0898-.57256-.18473-2.7417.14487-2.2637.30962.70822.44245 1.6529-.14487 2.2637z"/>
<path d="m743.12 551.15c1.2717 1.6903-2.5149 2.6281-1.3822.52093.83126 2.4926.8643.72595 1.3822-.52093z"/>
<path d="m743.8 553.71c.0898-.57256-.18473-2.7417.14487-2.2637.30962.70822.44245 1.6529-.14487 2.2637z"/>
<path d="m745.59 553.71c-.94594-.92154-.26359-4.0575.17925-1.7111-.20501.52619-.47871 1.1627-.17925 1.7111z"/>
<path d="m747.44 552.43c1.1316-2.2929-.0559 2.3462-.46208-.0764-.22311-.71755-.23078-1.6013.1903-.38583z"/>
</g>
<path d="m650.8 918.56-.008 2.6617 3.1393 1.7744.008-2.6617z" fill="#b4b4b4"/>
<path d="m583.48 882.41-.39366-.22181-3.1493 1.7744v3.1053l4.3302 2.4399 3.1493-1.7744v-.44362l-1.5891.60149-1.5602 1.173-3.9366-2.218v-2.6617l1.9813-.83348z" fill="#dcdcdc"/>
</g>
<path d="m583.48 885.96s-1.5746.88722-2.7556 1.5526c-1.181.66542-12.158 7.8085-14.565 9.094" fill="none" stroke="#009ce0" stroke-width="3.9124"/>
<g>
<path d="m580.33 884.18 2.2158 1.0296 1.7208 1.1884v2.6617l-1.1599-.65356c.32037-.38776.36414-.81258.36447-1.1209.00092-.78965-.5816-1.4307-1.3353-1.8219-.32119-.16674-1.1852-.35607-1.8058.0308z" fill="#fff"/>
<path d="m583.48 882.41 3.9335 2.218-3.1393 1.7744-3.9435-2.218z" fill="#fafafa"/>
<path d="m587.41 884.63.008 2.6616-3.1393 1.7744-.008-2.6617z" fill="#b4b4b4"/>
<path d="m584.66 882.63v.44361l.39774.22181h.78127v.44361h-.78127l-1.179-.66542v-.44361z" fill="#dcdcdc"/>
<path d="m584.66 882.63 1.181.66542h-.78731l-1.181-.66542z" fill="#f3f3f3"/>
<path d="m239.72 910.94-.39366-.22195-3.1493 1.7746v3.1052l4.3302 2.4398 3.1493-1.7744v-.4436l-1.5891.60145-1.5602 1.1729-3.9366-2.218v-2.6616l1.9813-.83348z" fill="#dcdcdc"/>
</g>
<path d="m239.72 914.49s-1.5746.88722-2.7556 1.5526c-1.181.66542-12.158 7.8085-14.565 9.094" fill="none" stroke="#009ce0" stroke-width="3.9124"/>
<path d="m319.64 1009.2-.39366-.222-3.1493 1.7746v3.1052l4.3302 2.4398 3.1493-1.7744v-.4436l-1.5891.6015-1.5602 1.1729-3.9366-2.218v-2.6616l1.9813-.8335z" fill="#dcdcdc"/>
<path d="m319.64 1012.8s-1.5746.8872-2.7556 1.5526c-1.181.6654-7.8378 5.3687-10.245 6.6542-11.81 6.6542-19.683 6.6542-31.493 0l-102.35-57.669s-40.818-25.986-58.499-38.024c-17.681-12.038-56.428 3.0095-39.5 15.8 16.929 12.79 20.69 15.048 20.69 15.048" fill="none" stroke="#009ce0" stroke-width="3.9124"/>
<g transform="matrix(.40761 0 0 .39779 -540.23 772.54)">
<path d="m1715.9 518.97c-.05 7.0723-12.324 14.159-36.823 28.303l-147.29 85.039c-49.098 28.346-49.098 28.346-98.195 0l-49.098-28.346c-24.815-14.327-37.088-21.413-36.819-28.577l.038-28.183 368.15-56.751z" fill="#ccc"/>
<path d="m1384.5 518.93 147.29-85.039c49.098-28.346 49.098-28.346 98.195 0l49.098 28.346c49.098 28.346 49.098 28.346 0 56.693l-147.29 85.039c-49.098 28.346-49.098 28.346-98.195 0l-49.098-28.346c-49.098-28.346-49.098-28.346 0-56.693z" fill="#fff"/>
<path d="m1699.4 521.19c0 2.951-2.3923 6.7245-5.3433 8.4283-2.9511 1.7038-5.3434.69267-5.3434-2.2584s2.3923-6.7245 5.3434-8.4283c2.951-1.7038 5.3433-.69267 5.3433 2.2584z" fill="#f00"/>
</g>
<g>
<path d="m316.49 1011 2.2158 1.0296 1.7208 1.1884v2.6616l-1.1599-.6535c.32036-.3878.36413-.8126.36447-1.1209.00091-.7897-.58161-1.4307-1.3353-1.8219-.32119-.1668-1.1852-.3561-1.8058.03z" fill="#fff"/>
<path d="m319.64 1009.2 3.9335 2.218-3.1393 1.7744-3.9435-2.218z" fill="#fafafa"/>
<path d="m323.57 1011.4.008 2.6616-3.1393 1.7744-.008-2.6616z" fill="#b4b4b4"/>
<path d="m320.82 1009.4v.4436l.39774.2218h.78127v.4436h-.78127l-1.179-.6654v-.4436z" fill="#dcdcdc"/>
<path d="m320.82 1009.4 1.181.6654h-.7873l-1.181-.6654z" fill="#f3f3f3"/>
<path d="m311.76 1004.8-.39366-.2219-3.1493 1.7745v3.1052l4.3302 2.4399 3.1493-1.7744v-.4436l-1.5891.6014-1.5602 1.173-3.9366-2.2181v-2.6616l1.9814-.8334z" fill="#dcdcdc"/>
</g>
<path d="m311.77 1008.3s-1.5746.8872-2.7556 1.5527c-1.181.6654-.75202.489-3.1592 1.7745-11.81 6.654-21.84 5.4384-30.705.4436-23.619-13.308-31.493-17.744-62.985-35.489-20.47-11.978-27.556-28.835-15.746-35.489 11.81-6.6541 26.375-16.192 26.375-16.192" fill="none" stroke="#009ce0" stroke-width="3.9124"/>
<g>
<path d="m308.61 1006.5 2.2158 1.0296 1.7208 1.1884v2.6617l-1.1599-.6536c.32036-.3877.36414-.8125.36447-1.1208.00091-.7897-.58161-1.4308-1.3353-1.822-.32119-.1667-1.1852-.356-1.8058.03z" fill="#fff"/>
<path d="m311.76 1004.8 3.9335 2.218-3.1393 1.7744-3.9435-2.218z" fill="#fafafa"/>
<path d="m315.69 1007 .008 2.6617-3.1393 1.7744-.008-2.6617z" fill="#b4b4b4"/>
<path d="m312.94 1005v.4436l.39773.2218h.78127v.4436h-.78127l-1.179-.6654v-.4436z" fill="#dcdcdc"/>
<path d="m312.94 1005 1.181.6654h-.7873l-1.181-.6654z" fill="#f3f3f3"/>
<path d="m236.57 912.72 2.2158 1.0296 1.7208 1.1885v2.6616l-1.1599-.65351c.32036-.38778.36413-.81251.36446-1.1208.00092-.7897-.5816-1.4307-1.3353-1.822-.32119-.16673-1.1852-.35603-1.8058.0301z" fill="#fff"/>
<path d="m239.72 910.94 3.9335 2.218-3.1393 1.7744-3.9435-2.218z" fill="#fafafa"/>
<path d="m243.64 913.16.008 2.6616-3.1393 1.7743-.008-2.6616z" fill="#b4b4b4"/>
<path d="m240.89 911.16v.4436l.39774.22181h.78127v.4436h-.78127l-1.179-.66541v-.4436z" fill="#dcdcdc"/>
<path d="m240.9 911.16 1.181.66541h-.7873l-1.181-.66541z" fill="#f3f3f3"/>
<path d="m637.81 925.44-1.181.66542h.78731l1.181-.66542z" fill="#f3f3f3"/>
<path d="m646.86 920.78-3.9335 2.218 3.1393 1.7744 3.9435-2.218z" fill="#fafafa"/>
<path d="m642.93 923-.008 2.6617 3.1393 1.7744.008-2.6616z" fill="#b4b4b4"/>
<path d="m645.68 921v.4436l-.39774.22181h-.78127v.44361h.78127l1.179-.66542v-.4436z" fill="#dcdcdc"/>
<path d="m645.68 921-1.181.66541h.7873l1.181-.66541z" fill="#f3f3f3"/>
<path d="m653.55 916.57v.4436l-.39773.22182h-.78127v.4436h.78127l1.179-.66542v-.4436z" fill="#dcdcdc"/>
<path d="m653.55 916.57-1.181.66542h.7873l1.181-.66542z" fill="#f3f3f3"/>
<path d="m762.2 973.35 5.5112 3.1053v2.6617l-5.5112-3.1053z" fill="#1cf100"/>
</g>
</g>
</svg>
